<?xml version="1.0" encoding="utf-8"?>
<!-- Generator: Adobe Illustrator 24.0.0, SVG Export Plug-In . SVG Version: 6.00 Build 0)  -->
<svg version="1.1" id="Capa_1" xmlns="http://www.w3.org/2000/svg" xmlns:xlink="http://www.w3.org/1999/xlink" x="0px" y="0px"
	 viewBox="0 0 500 465" style="enable-background:new 0 0 500 465;" xml:space="preserve">
<style type="text/css">
	.st0{fill:#ECECEC;}
	.st1{fill:#1A2E35;}
	.st2{fill:#244E91;}
	.st3{opacity:0.1;enable-background:new    ;}
	.st4{fill:#2B454E;}
	.st5{opacity:0.2;enable-background:new    ;}
	.st6{fill:#FFFFFF;}
	.st7{opacity:0.4;fill:#FFFFFF;enable-background:new    ;}
	.st8{fill:#DCDCDC;}
	.st9{fill:#375A64;}
</style>
<g>
	<path class="st0" d="M475.8,84l7.9-12.7l-3.9-2.4c-1.1-0.7-1.8-2-1.6-3.3c0.1-0.7,0.1-1.5,0.1-2.2c0-1.3,0.7-2.6,1.9-3.2l4-2.2
		L477,44.8l-4,2.2c-1.2,0.6-2.6,0.5-3.7-0.2c-0.6-0.4-1.2-0.8-1.9-1.2c-1.2-0.6-1.9-1.9-1.9-3.2l0.1-4.6l-14.9-0.5l-0.1,4.6
		c0,1.3-0.9,2.5-2.1,3.1c-0.3,0.2-0.7,0.3-1,0.5s-0.6,0.4-1,0.5c-1.1,0.7-2.6,0.7-3.7,0l-3.9-2.4L431,56.3l3.9,2.4
		c1.1,0.7,1.8,2,1.6,3.3c-0.1,0.7-0.1,1.5-0.1,2.2c0,1.3-0.7,2.6-1.9,3.2l-4,2.2l7.1,13.2l4-2.2c1.2-0.6,2.6-0.5,3.7,0.2
		c0.6,0.4,1.2,0.8,1.9,1.2c1.2,0.6,1.9,1.9,1.9,3.2l-0.1,4.6l14.9,0.5l0.1-4.6c0-1.3,0.9-2.5,2.1-3.1c0.3-0.2,0.7-0.3,1-0.5
		s0.6-0.4,1-0.5c1.2-0.7,2.6-0.7,3.7,0L475.8,84z M463.2,74.5c-6,3.2-13.4,1-16.5-5c-3.2-6-1-13.4,5-16.6c6-3.2,13.4-1,16.6,5
		C471.4,63.9,469.1,71.4,463.2,74.5z"/>
	<path class="st0" d="M59.8,209.7l7.9-12.7l-3.9-2.4c-1.1-0.7-1.8-2-1.6-3.3c0.1-0.7,0.1-1.5,0.1-2.2c0-1.3,0.7-2.6,1.9-3.2l4-2.2
		L61,170.5l-4,2.2c-1.2,0.6-2.6,0.5-3.7-0.2c-0.6-0.4-1.2-0.8-1.9-1.2c-1.2-0.6-1.9-1.9-1.9-3.2l0.1-4.6L34.7,163l-0.1,4.6
		c0,1.3-0.9,2.5-2.1,3.1c-0.3,0.2-0.7,0.3-1,0.5s-0.6,0.4-1,0.5c-1.1,0.7-2.6,0.7-3.7,0l-3.9-2.4L15.1,182l3.9,2.4
		c1.1,0.7,1.8,2,1.6,3.3c-0.1,0.7-0.1,1.5-0.1,2.2c0,1.3-0.7,2.6-1.9,3.2l-4,2.2l7.1,13.2l4-2.2c1.2-0.6,2.6-0.5,3.7,0.2
		c0.6,0.4,1.2,0.8,1.9,1.2c1.2,0.6,1.9,1.9,1.9,3.2l-0.1,4.6L48,216l0.1-4.6c0-1.3,0.9-2.5,2.1-3.1c0.3-0.2,0.7-0.3,1-0.5
		s0.6-0.4,1-0.5c1.2-0.7,2.6-0.7,3.7,0L59.8,209.7z M47.1,200.3c-6,3.2-13.4,1-16.5-5c-3.2-6-1-13.4,5-16.6c6-3.2,13.4-1,16.6,5
		C55.3,189.7,53.1,197.1,47.1,200.3z"/>
	<path class="st0" d="M177.6,25.8l-5.2-9.1l-2.8,1.6c-0.8,0.5-1.8,0.4-2.6-0.1c-0.4-0.3-0.9-0.5-1.4-0.8c-0.8-0.4-1.4-1.3-1.4-2.2
		V12h-10.5v3.2c0,0.9-0.5,1.8-1.4,2.2c-0.5,0.2-0.9,0.5-1.4,0.8c-0.8,0.5-1.8,0.6-2.6,0.1l-2.8-1.6l-5.2,9.1l2.8,1.6
		c0.8,0.5,1.3,1.4,1.2,2.3c0,0.3,0,0.5,0,0.8s0,0.5,0,0.8c0,0.9-0.4,1.8-1.2,2.3l-2.8,1.6l5.2,9.1l2.8-1.6c0.8-0.5,1.8-0.4,2.6,0.1
		c0.4,0.3,0.9,0.5,1.3,0.8c0.8,0.4,1.4,1.3,1.4,2.2V49h10.5v-3.2c0-0.9,0.5-1.8,1.4-2.2c0.5-0.2,0.9-0.5,1.3-0.8
		c0.8-0.5,1.8-0.6,2.6-0.1l2.8,1.6l5.2-9.1l-2.8-1.6c-0.8-0.5-1.3-1.4-1.2-2.3c0-0.3,0-0.5,0-0.8s0-0.5,0-0.8c0-0.9,0.4-1.8,1.2-2.3
		L177.6,25.8z M167.6,30.4c0,4.7-3.8,8.6-8.6,8.6c-4.7,0-8.6-3.8-8.6-8.6s3.8-8.6,8.6-8.6C163.7,21.9,167.6,25.7,167.6,30.4z"/>
</g>
<g>
	<g>
		<path class="st1" d="M68.2,325.6C50,343.4,46.9,371,50.8,395.1c0.1,0.5,0.9,0.4,0.9-0.1c0-5.5-0.2-10.9-0.1-16.4
			c0.1-0.2,0.2-0.5,0.3-0.7c4.7-3.5,9.1-7.4,11.8-12.7c3-6,4.2-12.7,6.6-19c0.2-0.6-0.4-0.4-0.8-0.1c-11.1,8.2-14.6,17-17.8,28.7
			c0.1-6.1,0.6-12.2,1.9-18.3c2.4-11.1,7.1-22.2,15.1-30.5C68.9,325.7,68.5,325.2,68.2,325.6z"/>
		<g>
			<path class="st2" d="M71.6,327.6c3.1,0.1,5.1,5.1,7.5,6.6c1.3,0.8,2.5,0.7,3.5-0.5c2.4-3.4-0.9-7.5-4-9.9c2.2,0.9,4.1,2.5,6.5,3
				c1.5,0.3,2.6-0.3,2.9-1.8c1.1-4.6-4.7-6.6-8.7-6.7c1.9-1.3,7.4-5,4.5-6.7c-3-1.8-9.4,3.4-11.5,5.1c-3.1,2.5-6.8,6.3-6.9,10.2
				C65.2,331.4,69.2,328.6,71.6,327.6z"/>
			<path class="st3" d="M71.6,327.6c3.1,0.1,5.1,5.1,7.5,6.6c1.3,0.8,2.5,0.7,3.5-0.5c2.4-3.4-0.9-7.5-4-9.9c2.2,0.9,4.1,2.5,6.5,3
				c1.5,0.3,2.6-0.3,2.9-1.8c1.1-4.6-4.7-6.6-8.7-6.7c1.9-1.3,7.4-5,4.5-6.7c-3-1.8-9.4,3.4-11.5,5.1c-3.1,2.5-6.8,6.3-6.9,10.2
				C65.2,331.4,69.2,328.6,71.6,327.6z"/>
			<path class="st2" d="M70.7,328.4c4-1.8,11.7,0.8,12.3-0.7c1.3-3.1-4.8-5.2-8.1-5.6c3.1-0.8,8.9-2.1,8.7-5.1
				c-0.2-3.6-9-0.5-13.4,2.9c-5.6,4.3-5.5,8.4-4.6,9.2C66.8,330.3,70,328.7,70.7,328.4z"/>
		</g>
	</g>
	<g>
		<path class="st1" d="M26.7,323.8c18.9,17.1,23,44.5,20.1,68.8c-0.1,0.6-0.9,0.4-1-0.1c-0.2-5.5-0.3-10.9-0.5-16.4
			c-0.1-0.2-0.2-0.5-0.3-0.7c-4.9-3.3-9.4-7-12.3-12.2c-3.3-5.9-4.7-12.5-7.3-18.7c-0.2-0.6,0.4-0.4,0.8-0.1
			c11.4,7.7,15.2,16.4,18.9,28c-0.4-6.1-1.1-12.2-2.6-18.2c-2.8-11-8-21.9-16.3-29.9C25.9,324,26.4,323.5,26.7,323.8z"/>
		<g>
			<path class="st2" d="M23.4,326c-3.1,0.2-4.9,5.3-7.3,6.9c-1.3,0.8-2.5,0.8-3.5-0.4c-2.5-3.3,0.6-7.6,3.6-10c-2.2,1-4,2.7-6.4,3.2
				c-1.4,0.3-2.6-0.2-3-1.6c-1.2-4.6,4.5-6.8,8.4-7.1c-2-1.3-7.6-4.7-4.8-6.6c2.9-1.9,9.5,3,11.7,4.7c3.2,2.4,7,6,7.3,9.9
				C29.9,329.5,25.8,326.9,23.4,326z"/>
			<path class="st3" d="M23.4,326c-3.1,0.2-4.9,5.3-7.3,6.9c-1.3,0.8-2.5,0.8-3.5-0.4c-2.5-3.3,0.6-7.6,3.6-10c-2.2,1-4,2.7-6.4,3.2
				c-1.4,0.3-2.6-0.2-3-1.6c-1.2-4.6,4.5-6.8,8.4-7.1c-2-1.3-7.6-4.7-4.8-6.6c2.9-1.9,9.5,3,11.7,4.7c3.2,2.4,7,6,7.3,9.9
				C29.9,329.5,25.8,326.9,23.4,326z"/>
			<path class="st2" d="M24.3,326.7c-4.1-1.7-11.7,1.2-12.4-0.2c-1.4-3,4.6-5.4,7.9-5.9c-3.1-0.7-9-1.8-8.9-4.8
				c0.1-3.6,9-0.8,13.5,2.4c5.7,4.1,5.9,8.2,5,9.1C28.2,328.4,25,327,24.3,326.7z"/>
		</g>
	</g>
	<g>
		<path class="st1" d="M46,369c1.4,9,3.1,18.3,5.9,27.1c0.3,0.8,1.4,0.6,1.3-0.3c-1.2-8.3-3.5-16.5-4.7-24.9
			c-1.3-8.4-1.9-17-1.4-25.5c0.8-14.1,4.6-29,13.8-40c0.2-0.3-0.2-0.6-0.4-0.4c-18.4,21.4-15.4,47.6-15.4,50
			c-2.6-8.9-5.3-19-15.1-28c-0.4-0.4-0.8-0.2-0.7,0.5c1.8,16.4,6.3,25,15.9,33.8C45.2,363.8,45.6,366.4,46,369z"/>
		<g>
			<path class="st2" d="M60.9,307.9c3.3-1.5,7.9,2.7,11.1,3c1.7,0.2,3-0.5,3.3-2.3c0.8-4.7-4.7-7.4-9.1-8.2c2.8-0.2,5.5,0.6,8.2-0.2
				c1.6-0.5,2.5-1.6,2.2-3.3c-1.2-5.3-8.2-4.5-12.4-2.6c1.3-2.4,5.2-8.9,1.3-9.3c-4-0.4-8.1,8.3-9.4,11.1c-1.9,4.2-3.9,9.9-2.1,14.1
				C56.2,315,58.9,310.1,60.9,307.9z"/>
			<path class="st3" d="M60.9,307.9c3.3-1.5,7.9,2.7,11.1,3c1.7,0.2,3-0.5,3.3-2.3c0.8-4.7-4.7-7.4-9.1-8.2c2.8-0.2,5.5,0.6,8.2-0.2
				c1.6-0.5,2.5-1.6,2.2-3.3c-1.2-5.3-8.2-4.5-12.4-2.6c1.3-2.4,5.2-8.9,1.3-9.3c-4-0.4-8.1,8.3-9.4,11.1c-1.9,4.2-3.9,9.9-2.1,14.1
				C56.2,315,58.9,310.1,60.9,307.9z"/>
			<path class="st2" d="M60.4,309.1c3.2-3.9,12.5-5.1,12.5-7c-0.2-3.9-7.6-3-11.3-1.7c2.8-2.4,8.2-6.7,6.5-9.7
				c-2-3.6-9.6,4-12.5,9.8c-3.6,7.3-1.5,11.5-0.1,11.9C57.3,313,59.8,309.8,60.4,309.1z"/>
		</g>
	</g>
	<path class="st2" d="M33.9,373.9l-8.1,61.9h49.3c-1-5.5-10.2-61.9-10.2-61.9H33.9z"/>
</g>
<ellipse class="st0" cx="250" cy="438.8" rx="149.1" ry="21.1"/>
<g>
	<g>
		<rect x="230.4" y="260.2" class="st4" width="45.5" height="3.7"/>
		<rect x="230.4" y="265.1" class="st4" width="45.5" height="3.7"/>
		<rect x="230.4" y="269.9" class="st4" width="45.5" height="3.7"/>
		<rect x="230.4" y="274.8" class="st4" width="45.5" height="3.7"/>
		<rect x="230.4" y="279.6" class="st4" width="45.5" height="3.7"/>
	</g>
	<g>
		<rect x="209.1" y="376.5" class="st4" width="86.5" height="3.7"/>
		<rect x="209.1" y="381.3" class="st4" width="86.5" height="3.7"/>
		<rect x="209.1" y="386.2" class="st4" width="86.5" height="3.7"/>
		<rect x="209.1" y="391" class="st4" width="86.5" height="3.7"/>
		<rect x="209.1" y="395.9" class="st4" width="86.5" height="3.7"/>
	</g>
	<g>
		<g>
			<path class="st2" d="M171.1,229.4c0-0.5-18.9-6.9-18.9-6.9l1.1-65.2l25.2-5.4L171.1,229.4z"/>
			<path class="st5" d="M171.1,229.4c0-0.5-18.9-6.9-18.9-6.9l1.1-65.2l25.2-5.4L171.1,229.4z"/>
		</g>
		<g>
			<path class="st2" d="M344.9,255c0.1-0.5,20.1,0.1,20.1,0.1l21.4-61.6l-21.8-13.7L344.9,255z"/>
			<path class="st5" d="M344.9,255c0.1-0.5,20.1,0.1,20.1,0.1l21.4-61.6l-21.8-13.7L344.9,255z"/>
		</g>
		<path class="st2" d="M167.5,253.4c0,0,7-105.4,13.2-140.1c0,0,127.3,9.6,196.1,35.9c0,0-35.4,123.1-37.3,129.2
			C339.5,278.5,249.8,260.8,167.5,253.4z"/>
		<g>
			<path class="st3" d="M281.1,127.4c-2.1,12.7-4.2,25.4-6.3,38.1l-6.6,38l-0.4-0.5l42.7,10.1l21.3,5.2l21.3,5.3l-21.4-4.8
				l-21.4-4.9l-42.7-10l-0.4-0.1l0.1-0.4l6.8-38C276.4,152.7,278.7,140,281.1,127.4z"/>
			<path class="st3" d="M276.4,134.6c0,1.2-0.9,2.4-2.2,2.5c-0.6,0.1-1.3-0.1-1.9-0.6c-0.5-0.5-0.8-1.2-0.8-1.9s0.3-1.4,0.8-1.9
				s1.2-0.7,1.9-0.6C275.5,132.3,276.5,133.5,276.4,134.6z M276.4,134.6c0-0.6-0.3-1.2-0.7-1.5c-0.4-0.4-1-0.5-1.5-0.5
				c-1.1,0.1-1.8,1.1-1.8,2s0.7,1.9,1.8,2c0.5,0.1,1.1-0.1,1.5-0.5C276.2,135.8,276.4,135.2,276.4,134.6z"/>
			<path class="st3" d="M274.2,150.3c0,1.2-0.9,2.4-2.2,2.5c-0.6,0.1-1.3-0.1-1.9-0.6c-0.5-0.5-0.8-1.2-0.8-1.9s0.3-1.4,0.8-1.9
				s1.2-0.7,1.9-0.6C273.3,148,274.2,149.2,274.2,150.3z M274.2,150.3c0-0.6-0.3-1.2-0.7-1.5c-0.4-0.4-1-0.5-1.5-0.5
				c-1.1,0.1-1.8,1.1-1.8,2s0.7,1.9,1.8,2c0.5,0.1,1.1-0.1,1.5-0.5C273.9,151.5,274.2,150.9,274.2,150.3z"/>
			<path class="st3" d="M271.5,166.9c0,1.2-0.9,2.4-2.2,2.5c-0.6,0.1-1.3-0.1-1.9-0.6c-0.5-0.5-0.8-1.2-0.8-1.9s0.3-1.4,0.8-1.9
				s1.2-0.7,1.9-0.6C270.6,164.5,271.5,165.7,271.5,166.9z M271.5,166.9c0-0.6-0.3-1.2-0.7-1.5c-0.4-0.4-1-0.5-1.5-0.5
				c-1.1,0.1-1.8,1.1-1.8,2s0.7,1.9,1.8,2c0.5,0.1,1.1-0.1,1.5-0.5C271.2,168.1,271.5,167.5,271.5,166.9z"/>
			<path class="st3" d="M268.7,183.5c0,1.2-0.9,2.4-2.2,2.5c-0.6,0.1-1.3-0.1-1.9-0.6c-0.5-0.5-0.8-1.2-0.8-1.9s0.3-1.4,0.8-1.9
				s1.2-0.7,1.9-0.6C267.8,181.1,268.7,182.3,268.7,183.5z M268.7,183.5c0-0.6-0.3-1.2-0.7-1.5c-0.4-0.4-1-0.5-1.5-0.5
				c-1.1,0.1-1.8,1.1-1.8,2s0.7,1.9,1.8,2c0.5,0.1,1.1-0.1,1.5-0.5S268.7,184.1,268.7,183.5z"/>
			<path class="st3" d="M278.1,209.9c0,1.2-0.9,2.4-2.2,2.5c-0.6,0.1-1.3-0.1-1.9-0.6c-0.5-0.5-0.8-1.2-0.8-1.9s0.3-1.4,0.8-1.9
				s1.2-0.7,1.9-0.6C277.2,207.5,278.1,208.7,278.1,209.9z M278.1,209.9c0-0.6-0.3-1.2-0.7-1.5c-0.4-0.4-1-0.5-1.5-0.5
				c-1.1,0.1-1.8,1.1-1.8,2s0.7,1.9,1.8,2c0.5,0.1,1.1-0.1,1.5-0.5C277.8,211.1,278.1,210.5,278.1,209.9z"/>
			<path class="st3" d="M293.7,213.7c0,1.2-0.9,2.4-2.2,2.5c-0.6,0.1-1.3-0.1-1.9-0.6c-0.5-0.5-0.8-1.2-0.8-1.9s0.3-1.4,0.8-1.9
				s1.2-0.7,1.9-0.6C292.8,211.4,293.8,212.6,293.7,213.7z M293.7,213.7c0-0.6-0.3-1.2-0.7-1.5c-0.4-0.4-1-0.5-1.5-0.5
				c-1.1,0.1-1.8,1.1-1.8,2s0.7,1.9,1.8,2c0.5,0.1,1.1-0.1,1.5-0.5C293.5,214.9,293.7,214.3,293.7,213.7z"/>
			<path class="st3" d="M309.4,217.5c0,1.2-0.9,2.4-2.2,2.5c-0.6,0.1-1.3-0.1-1.9-0.6c-0.5-0.5-0.8-1.2-0.8-1.9s0.3-1.4,0.8-1.9
				s1.2-0.7,1.9-0.6C308.5,215.2,309.4,216.4,309.4,217.5z M309.4,217.5c0-0.6-0.3-1.2-0.7-1.5c-0.4-0.4-1-0.5-1.5-0.5
				c-1.1,0.1-1.8,1.1-1.8,2s0.7,1.9,1.8,2c0.5,0.1,1.1-0.1,1.5-0.5C309.1,218.7,309.4,218.1,309.4,217.5z"/>
			<path class="st3" d="M325,221.3c0,1.2-0.9,2.4-2.2,2.5c-0.6,0.1-1.3-0.1-1.9-0.6c-0.5-0.5-0.8-1.2-0.8-1.9s0.3-1.4,0.8-1.9
				s1.2-0.7,1.9-0.6C324.1,219,325,220.2,325,221.3z M325,221.3c0-0.6-0.3-1.2-0.7-1.5c-0.4-0.4-1-0.5-1.5-0.5
				c-1.1,0.1-1.8,1.1-1.8,2s0.7,1.9,1.8,2c0.5,0.1,1.1-0.1,1.5-0.5C324.8,222.5,325,221.9,325,221.3z"/>
			<path class="st3" d="M340.7,225.3c-0.1,1.2-1.1,2.3-2.4,2.3c-0.6,0-1.3-0.2-1.8-0.7s-0.7-1.2-0.7-1.9c0.1-0.7,0.4-1.4,1-1.8
				c0.6-0.4,1.3-0.6,1.9-0.5C339.9,222.9,340.8,224.2,340.7,225.3z M340.7,225.3c0-0.6-0.2-1.2-0.6-1.6c-0.4-0.4-1-0.6-1.5-0.6
				c-1.1,0-1.9,0.9-1.9,1.9c-0.1,0.9,0.5,1.9,1.6,2.1c0.5,0.1,1.1,0,1.6-0.3C340.3,226.5,340.6,225.9,340.7,225.3z"/>
			<path class="st3" d="M266,200c0,1.2-0.9,2.4-2.2,2.5c-0.6,0.1-1.3-0.1-1.9-0.6c-0.5-0.5-0.8-1.2-0.8-1.9s0.3-1.4,0.8-1.9
				s1.2-0.7,1.9-0.6C265,197.7,266,198.9,266,200z M266,200c0-0.6-0.3-1.2-0.7-1.5c-0.4-0.4-1-0.5-1.5-0.5c-1.1,0.1-1.8,1.1-1.8,2
				s0.7,1.9,1.8,2c0.5,0.1,1.1-0.1,1.5-0.5C265.7,201.2,265.9,200.6,266,200z"/>
		</g>
		<g>
			<g>
				<ellipse class="st5" cx="215.4" cy="200.6" rx="36.2" ry="36.2"/>
				<ellipse class="st6" cx="215.4" cy="200.6" rx="29" ry="29"/>
				<g>
					
						<rect x="206.3" y="189.4" transform="matrix(0.1599 -0.9871 0.9871 0.1599 -14.1568 369.0465)" class="st2" width="6.9" height="6.9"/>
					
						<rect x="200.6" y="181.5" transform="matrix(0.1599 -0.9871 0.9871 0.1599 -11.1415 356.7848)" class="st2" width="6.9" height="6.9"/>
					
						<rect x="227.7" y="185.9" transform="matrix(0.1599 -0.9871 0.9871 0.1599 7.2841 387.2277)" class="st2" width="6.9" height="6.9"/>
					
						<rect x="196.3" y="208.5" transform="matrix(0.1599 -0.9871 0.9871 0.1599 -41.4209 375.2253)" class="st2" width="6.9" height="6.9"/>
					
						<rect x="223.4" y="212.9" transform="matrix(0.1599 -0.9871 0.9871 0.1599 -22.9953 405.6683)" class="st2" width="6.9" height="6.9"/>
					
						<rect x="204.1" y="202.8" transform="matrix(0.1599 -0.9871 0.9871 0.1599 -29.2265 378.1298)" class="st2" width="6.9" height="6.9"/>
					
						<rect x="212" y="197.2" transform="matrix(0.1599 -0.9871 0.9871 0.1599 -17.0684 381.2265)" class="st2" width="6.9" height="6.9"/>
					
						<rect x="219.9" y="191.6" transform="matrix(0.1599 -0.9871 0.9871 0.1599 -4.9104 384.3234)" class="st2" width="6.9" height="6.9"/>
					
						<rect x="217.7" y="205" transform="matrix(0.1599 -0.9871 0.9871 0.1599 -19.9729 393.4083)" class="st2" width="6.9" height="6.9"/>
				</g>
			</g>
			<g>
				<g>
					
						<ellipse transform="matrix(0.7071 -0.7071 0.7071 0.7071 -61.0273 284.1751)" class="st2" cx="312.5" cy="215.8" rx="36.2" ry="36.2"/>
					
						<ellipse transform="matrix(0.7071 -0.7071 0.7071 0.7071 -61.0273 284.1751)" class="st5" cx="312.5" cy="215.8" rx="36.2" ry="36.2"/>
					<path class="st5" d="M347.7,224.1c-0.2,0.7-0.4,1.4-0.6,2.1l-70.5-15c0.2-1.3,0.4-2.5,0.7-3.8c4.6-19.4,24.1-31.4,43.5-26.8
						C340.3,185.2,352.3,204.7,347.7,224.1z"/>
				</g>
				<ellipse class="st6" cx="312.5" cy="215.8" rx="29" ry="29"/>
				<g>
					
						<rect x="295.3" y="212.3" transform="matrix(0.2312 -0.9729 0.9729 0.2312 30.267 469.8775)" class="st2" width="34.2" height="6.9"/>
				</g>
				<g>
					<path class="st2" d="M349.8,223.5l-74-17.6c4.9-20.4,25.4-33.1,45.8-28.2C342,182.5,354.6,203,349.8,223.5z"/>
					<path class="st5" d="M349.8,223.5l-74-17.6c4.9-20.4,25.4-33.1,45.8-28.2C342,182.5,354.6,203,349.8,223.5z"/>
				</g>
			</g>
			<path class="st3" d="M249.6,237.3c0.2-2.9,1.2-5.8,3.3-8.1c1-1.2,2.4-2.1,3.9-2.6c1.5-0.6,3.2-0.7,4.7-0.5
				c1.6,0.2,3.2,0.7,4.5,1.8c1.3,1,2.3,2.4,2.9,3.8c1.2,2.9,1.3,5.9,0.8,8.8c-0.5-2.8-1.2-5.6-2.5-7.9c-1.3-2.3-3.4-3.7-5.9-3.9
				c-2.5-0.3-5,0.4-7,2.1C252.3,232.2,250.7,234.6,249.6,237.3z"/>
		</g>
		<g>
			<path class="st6" d="M177.4,163.5c0.3-3.9,0.7-7.7,1.1-11.6c0.4-3.8,0.8-7.7,1.3-11.5c0.4-3.8,0.9-7.7,1.4-11.5s1-7.7,1.6-11.5
				l0.1-1l1,0.1c8.3,0.5,16.7,1.2,25,2.1c4.2,0.4,8.3,0.9,12.5,1.4c4.1,0.6,8.3,1.1,12.4,1.9l-25-1.5l-25-1.6l1.2-1
				c-0.6,3.8-1.1,7.7-1.7,11.5c-0.6,3.8-1.2,7.6-1.8,11.5c-0.6,3.8-1.3,7.6-1.9,11.4C178.8,155.9,178.2,159.7,177.4,163.5z"/>
			<path class="st6" d="M183.4,192.7c0.8-4.6,3-9.1,5.8-12.9c0.7-1,1.5-1.9,2.3-2.8c0.8-0.9,1.7-1.7,2.6-2.5
				c0.9-0.8,1.9-1.5,2.8-2.2c1-0.6,2-1.3,3.1-1.9c1.1-0.5,2.2-1.1,3.3-1.6l3.4-1.2l3.6-0.7c1.2-0.2,2.4-0.2,3.6-0.3
				c4.8-0.1,9.6,0.9,13.9,2.7c-4.6-0.9-9.3-1.4-13.8-0.9c-4.5,0.4-9,1.8-12.9,4c-4,2.2-7.5,5.2-10.5,8.6
				C187.6,184.4,185.1,188.4,183.4,192.7z"/>
			<path class="st6" d="M283.1,202.5c1.5-4.5,4.2-8.6,7.5-12c0.8-0.9,1.8-1.6,2.6-2.4c0.9-0.7,1.9-1.4,2.9-2.2
				c1-0.6,2.1-1.2,3.1-1.8c1.1-0.5,2.2-1,3.3-1.5c1.2-0.4,2.3-0.8,3.5-1.1l3.6-0.7l3.6-0.2c1.2,0,2.4,0.1,3.6,0.2
				c4.8,0.5,9.3,2.2,13.4,4.6c-4.5-1.5-9-2.6-13.5-2.8c-4.6-0.2-9.1,0.5-13.3,2.2c-4.2,1.6-8.1,4.1-11.6,7.1
				C288.4,194.8,285.5,198.4,283.1,202.5z"/>
		</g>
	</g>
	<g>
		<g>
			<g>
				<path class="st2" d="M171.5,318.4c-9.3,0-29.5-2.1-42.6-18.9c-16.7-21.5-10.7-62.7-10.4-64.4l7.2,1.1
					c-0.1,0.4-5.8,39.8,8.9,58.8c14.4,18.5,40.6,15.9,40.9,15.9l0.8,7.3C176.1,318.2,174.3,318.4,171.5,318.4z"/>
				<path class="st7" d="M171.5,318.4c-9.3,0-29.5-2.1-42.6-18.9c-16.7-21.5-10.7-62.7-10.4-64.4l7.2,1.1
					c-0.1,0.4-5.8,39.8,8.9,58.8c14.4,18.5,40.6,15.9,40.9,15.9l0.8,7.3C176.1,318.2,174.3,318.4,171.5,318.4z"/>
			</g>
			<path class="st2" d="M127.9,241.2c-1.3,0-2.7-0.1-4-0.3c-12.2-2-17.6-9.3-20-15.1s-2.9-12.8-1.6-20.9l15.5,2.5
				c-0.8,5-0.6,9.4,0.7,12.4c0.9,2.1,2.6,4.7,8,5.6c2.5,0.4,5.2,0.2,8-4c2.2-3.3,3.5-7.7,3.9-10.5l15.5,2.5
				c-0.4,2.2-1.9,10-6.3,16.7C142.6,237.3,135.7,241.2,127.9,241.2z"/>
			<g>
				<path class="st2" d="M186.8,339.4c0-0.3-13.1-2.4-13.1-2.4l-6.4-42.8l15.9-6.3L186.8,339.4z"/>
				<path class="st5" d="M186.8,339.4c0-0.3-13.1-2.4-13.1-2.4l-6.4-42.8l15.9-6.3L186.8,339.4z"/>
			</g>
		</g>
		<g>
			<path class="st2" d="M316.4,339.4c0-0.3,13.2-2.1,13.2-2.1l7.3-42.6l-15.7-6.6L316.4,339.4z"/>
			<path class="st5" d="M316.4,339.4c0-0.3,13.2-2.1,13.2-2.1l7.3-42.6l-15.7-6.6L316.4,339.4z"/>
		</g>
		<path class="st2" d="M181.4,278.3c0,0,106-4.5,141.9,1.4c0,0-10.5,102.6-11.1,104.6c0,0-105.5-0.3-122,0
			C190.2,384.3,181.2,316.1,181.4,278.3z"/>
		<g>
			<path class="st5" d="M213.6,306.4c0,0,57.9-2.3,77.4,0.7c0,0-5.7,51.7-6.1,52.7c0,0-57.6-0.1-66.6,0
				C218.4,359.9,214.4,324.5,213.6,306.4z"/>
			<path class="st5" d="M221.5,359.9c-1.3,0-2.4,0-3.1,0c0,0-3.9-35.4-4.8-53.5c0,0,1.3-0.1,3.6-0.1L221.5,359.9z"/>
			<g>
				<g>
					<g>
						<g>
							<path class="st2" d="M238.6,319.2c-3.2-1-6.7,0.8-7.7,4s0.8,6.7,4,7.7s6.7-0.8,7.7-4S241.8,320.2,238.6,319.2z M241.9,326.7
								c-0.9,2.9-3.9,4.4-6.8,3.5c-2.8-0.9-4.4-3.9-3.5-6.8c0.9-2.8,3.9-4.4,6.8-3.5C241.2,320.8,242.8,323.8,241.9,326.7z
								 M238.6,319.2c-3.2-1-6.7,0.8-7.7,4s0.8,6.7,4,7.7s6.7-0.8,7.7-4S241.8,320.2,238.6,319.2z M241.9,326.7
								c-0.9,2.9-3.9,4.4-6.8,3.5c-2.8-0.9-4.4-3.9-3.5-6.8c0.9-2.8,3.9-4.4,6.8-3.5C241.2,320.8,242.8,323.8,241.9,326.7z
								 M238.6,319.2c-3.2-1-6.7,0.8-7.7,4s0.8,6.7,4,7.7s6.7-0.8,7.7-4S241.8,320.2,238.6,319.2z M241.9,326.7
								c-0.9,2.9-3.9,4.4-6.8,3.5c-2.8-0.9-4.4-3.9-3.5-6.8c0.9-2.8,3.9-4.4,6.8-3.5C241.2,320.8,242.8,323.8,241.9,326.7z
								 M240.6,312.7c-6.8-2.2-14.1,1.6-16.3,8.5c-2.2,6.8,1.6,14.1,8.5,16.3c6.8,2.2,14.1-1.6,16.3-8.5
								C251.2,322.1,247.5,314.8,240.6,312.7z M243.5,327.2c-1.2,3.7-5.2,5.8-8.9,4.7c-3.7-1.2-5.8-5.2-4.6-8.9
								c1.2-3.7,5.2-5.8,8.9-4.6C242.6,319.4,244.7,323.4,243.5,327.2z M242.6,326.9c1-3.2-0.8-6.7-4-7.7s-6.7,0.8-7.7,4
								s0.8,6.7,4,7.7S241.6,330.1,242.6,326.9z M241.9,326.7c-0.9,2.9-3.9,4.4-6.8,3.5c-2.8-0.9-4.4-3.9-3.5-6.8
								c0.9-2.8,3.9-4.4,6.8-3.5C241.2,320.8,242.8,323.8,241.9,326.7z M238.6,319.2c-3.2-1-6.7,0.8-7.7,4s0.8,6.7,4,7.7
								s6.7-0.8,7.7-4S241.8,320.2,238.6,319.2z M241.9,326.7c-0.9,2.9-3.9,4.4-6.8,3.5c-2.8-0.9-4.4-3.9-3.5-6.8
								c0.9-2.8,3.9-4.4,6.8-3.5C241.2,320.8,242.8,323.8,241.9,326.7z M238.6,319.2c-3.2-1-6.7,0.8-7.7,4s0.8,6.7,4,7.7
								s6.7-0.8,7.7-4S241.8,320.2,238.6,319.2z M241.9,326.7c-0.9,2.9-3.9,4.4-6.8,3.5c-2.8-0.9-4.4-3.9-3.5-6.8
								c0.9-2.8,3.9-4.4,6.8-3.5C241.2,320.8,242.8,323.8,241.9,326.7z"/>
							<g>
								<polygon class="st2" points="235.4,337.7 230.6,336.2 229.8,339.6 234,340.9 								"/>
								<polygon class="st2" points="226.8,333.2 224.5,328.8 221.5,330.7 223.5,334.6 								"/>
								<polygon class="st2" points="223.9,324 225.4,319.2 222,318.4 220.6,322.7 								"/>
								<polygon class="st2" points="228.4,315.4 232.8,313.1 230.9,310.1 227,312.2 								"/>
								<polygon class="st2" points="237.6,312.6 242.3,314.1 243.1,310.6 238.9,309.3 								"/>
								<polygon class="st2" points="246.1,317 248.4,321.4 251.4,319.6 249.4,315.6 								"/>
								<polygon class="st2" points="249,326.2 247.5,331 251,331.8 252.3,327.5 								"/>
								<polygon class="st2" points="244.6,334.8 240.1,337.1 242,340.1 245.9,338 								"/>
							</g>
						</g>
					</g>
				</g>
			</g>
			<g>
				<g>
					<g>
						<g>
							<path class="st8" d="M259.5,337.3c-1.9-1.2-4.5-0.7-5.7,1.2c-1.3,1.9-0.7,4.5,1.2,5.7s4.5,0.7,5.7-1.2
								C262,341.1,261.4,338.5,259.5,337.3z M260.3,342.7c-1.1,1.7-3.4,2.2-5,1.1c-1.7-1.1-2.2-3.4-1.1-5c1.1-1.7,3.4-2.2,5-1.1
								C260.9,338.8,261.4,341.1,260.3,342.7z M259.5,337.3c-1.9-1.2-4.5-0.7-5.7,1.2c-1.3,1.9-0.7,4.5,1.2,5.7s4.5,0.7,5.7-1.2
								C262,341.1,261.4,338.5,259.5,337.3z M260.3,342.7c-1.1,1.7-3.4,2.2-5,1.1c-1.7-1.1-2.2-3.4-1.1-5c1.1-1.7,3.4-2.2,5-1.1
								C260.9,338.8,261.4,341.1,260.3,342.7z M259.5,337.3c-1.9-1.2-4.5-0.7-5.7,1.2c-1.3,1.9-0.7,4.5,1.2,5.7s4.5,0.7,5.7-1.2
								C262,341.1,261.4,338.5,259.5,337.3z M260.3,342.7c-1.1,1.7-3.4,2.2-5,1.1c-1.7-1.1-2.2-3.4-1.1-5c1.1-1.7,3.4-2.2,5-1.1
								C260.9,338.8,261.4,341.1,260.3,342.7z M262,333.4c-4-2.6-9.5-1.5-12.1,2.6c-2.6,4-1.5,9.5,2.6,12.1c4,2.6,9.5,1.5,12.1-2.6
								C267.2,341.5,266,336.1,262,333.4z M261.3,343.4c-1.4,2.2-4.4,2.8-6.6,1.4c-2.2-1.4-2.8-4.4-1.4-6.6c1.4-2.2,4.4-2.8,6.6-1.4
								C262.1,338.2,262.7,341.2,261.3,343.4z M260.7,343c1.2-1.9,0.7-4.5-1.2-5.7c-1.9-1.2-4.5-0.7-5.7,1.2
								c-1.3,1.9-0.7,4.5,1.2,5.7C256.9,345.5,259.5,344.9,260.7,343z M260.3,342.7c-1.1,1.7-3.4,2.2-5,1.1c-1.7-1.1-2.2-3.4-1.1-5
								c1.1-1.7,3.4-2.2,5-1.1C260.9,338.8,261.4,341.1,260.3,342.7z M259.5,337.3c-1.9-1.2-4.5-0.7-5.7,1.2
								c-1.3,1.9-0.7,4.5,1.2,5.7s4.5,0.7,5.7-1.2C262,341.1,261.4,338.5,259.5,337.3z M260.3,342.7c-1.1,1.7-3.4,2.2-5,1.1
								c-1.7-1.1-2.2-3.4-1.1-5c1.1-1.7,3.4-2.2,5-1.1C260.9,338.8,261.4,341.1,260.3,342.7z M259.5,337.3c-1.9-1.2-4.5-0.7-5.7,1.2
								c-1.3,1.9-0.7,4.5,1.2,5.7s4.5,0.7,5.7-1.2C262,341.1,261.4,338.5,259.5,337.3z M260.3,342.7c-1.1,1.7-3.4,2.2-5,1.1
								c-1.7-1.1-2.2-3.4-1.1-5c1.1-1.7,3.4-2.2,5-1.1C260.9,338.8,261.4,341.1,260.3,342.7z"/>
							<g>
								<polygon class="st8" points="254.1,348.7 251.3,346.9 250.1,349 252.6,350.6 								"/>
								<polygon class="st8" points="249.3,344.3 248.6,341 246.4,341.6 247,344.6 								"/>
								<polygon class="st8" points="249.1,337.8 251,334.9 248.9,333.8 247.2,336.3 								"/>
								<polygon class="st8" points="253.6,333 256.8,332.3 256.2,330 253.2,330.7 								"/>
								<polygon class="st8" points="260,332.8 262.9,334.6 264,332.5 261.5,330.9 								"/>
								<polygon class="st8" points="264.8,337.2 265.5,340.5 267.8,339.9 267.2,336.9 								"/>
								<polygon class="st8" points="265,343.7 263.2,346.6 265.3,347.7 266.9,345.2 								"/>
								<polygon class="st8" points="260.6,348.5 257.3,349.2 258,351.5 260.9,350.8 								"/>
							</g>
						</g>
					</g>
				</g>
			</g>
		</g>
		<g>
			<polygon class="st2" points="320.7,372.4 324.7,373.1 336.4,294.2 331.8,293.3 			"/>
			<g>
				<path class="st2" d="M285,359.9l6.1-52.7l40.7-13.8c0,0-11.1,79.9-11.1,79L285,359.9z"/>
				<path class="st7" d="M285,359.9l6.1-52.7l40.7-13.8c0,0-11.1,79.9-11.1,79L285,359.9z"/>
			</g>
		</g>
		<path class="st6" d="M186.2,309.3c-0.7-4.4-1-8.8-1.3-13.2c-0.1-2.2-0.2-4.4-0.2-6.6s-0.1-4.4,0-6.6v-0.6h0.6
			c8.1-0.4,16.2-1,24.3-1.3c8.1-0.4,16.2-0.8,24.3-1c-8.1,0.7-16.2,1.4-24.2,1.9c-8.1,0.6-16.2,1.1-24.3,1.6l0.6-0.6v6.6l0.1,6.6
			c0,2.2,0.1,4.4,0.1,6.6L186.2,309.3z"/>
		<path class="st6" d="M296.7,307.9c2.5-1.2,5.1-2.3,7.7-3.3c2.6-1.1,5.2-2,7.8-3c2.6-0.9,5.3-1.8,8-2.5c2.7-0.8,5.4-1.5,8.2-1.9
			l0.7-0.1l-0.1,0.7c-0.6,3.4-1.3,6.8-2.1,10.2c0.3-3.5,0.7-6.9,1.2-10.4l0.6,0.5c-2.7,0.6-5.4,1.4-8,2.2c-2.7,0.8-5.3,1.6-8,2.5
			L296.7,307.9z"/>
		<g>
			<polygon class="st3" points="203.9,278.5 204.6,291.7 205.1,304.9 206.2,331.3 207,357.7 207.3,370.9 207.5,384.1 206.8,370.9 
				206.2,357.7 205.2,331.3 204.4,304.9 204.1,291.7 			"/>
			<path class="st3" d="M200.1,286.5c0.3,1.1-0.4,2.5-1.7,2.9c-0.6,0.2-1.3,0.1-2-0.2c-0.6-0.3-1.1-1-1.2-1.7c-0.1-0.7,0-1.5,0.5-2
				c0.4-0.6,1.1-0.9,1.7-1C198.7,284.3,199.9,285.3,200.1,286.5z M200.1,286.5c-0.1-0.6-0.5-1.1-1-1.4s-1.1-0.3-1.6-0.1
				c-1,0.3-1.5,1.4-1.3,2.3s1,1.7,2.1,1.6c0.5,0,1.1-0.3,1.4-0.8C200.1,287.6,200.2,287,200.1,286.5z"/>
			<path class="st3" d="M201,302.3c0.3,1.1-0.4,2.5-1.7,2.9c-0.6,0.2-1.3,0.1-2-0.2c-0.6-0.3-1.1-1-1.2-1.7c-0.1-0.7,0-1.5,0.5-2
				c0.4-0.6,1.1-0.9,1.7-1C199.6,300.1,200.8,301.1,201,302.3z M201,302.3c-0.1-0.6-0.5-1.1-1-1.4s-1.1-0.3-1.6-0.1
				c-1,0.3-1.5,1.4-1.3,2.3s1,1.7,2.1,1.6c0.5,0,1.1-0.3,1.4-0.8C201,303.5,201.1,302.8,201,302.3z"/>
			<path class="st3" d="M201.6,319.1c0.3,1.1-0.4,2.5-1.7,2.9c-0.6,0.2-1.3,0.1-2-0.2c-0.6-0.3-1.1-1-1.2-1.7c-0.1-0.7,0-1.5,0.5-2
				c0.4-0.6,1.1-0.9,1.7-1C200.2,316.9,201.4,317.9,201.6,319.1z M201.6,319.1c-0.1-0.6-0.5-1.1-1-1.4s-1.1-0.3-1.6-0.1
				c-1,0.3-1.5,1.4-1.3,2.3s1,1.7,2.1,1.6c0.5,0,1.1-0.3,1.4-0.8C201.5,320.3,201.7,319.6,201.6,319.1z"/>
			<path class="st3" d="M202.2,335.9c0.3,1.1-0.4,2.5-1.7,2.9c-0.6,0.2-1.3,0.1-2-0.2c-0.6-0.3-1.1-1-1.2-1.7c-0.1-0.7,0-1.5,0.5-2
				c0.4-0.6,1.1-0.9,1.7-1C200.8,333.7,201.9,334.7,202.2,335.9z M202.2,335.9c-0.1-0.6-0.5-1.1-1-1.4s-1.1-0.3-1.6-0.1
				c-1,0.3-1.5,1.4-1.3,2.3s1,1.7,2.1,1.6c0.5,0,1.1-0.3,1.4-0.8C202.1,337,202.3,336.4,202.2,335.9z"/>
			<path class="st3" d="M202.7,352.6c0.3,1.1-0.4,2.5-1.7,2.9c-0.6,0.2-1.3,0.1-2-0.2c-0.6-0.3-1.1-1-1.2-1.7c-0.1-0.7,0-1.5,0.5-2
				c0.4-0.6,1.1-0.9,1.7-1C201.4,350.5,202.5,351.5,202.7,352.6z M202.7,352.6c-0.1-0.6-0.5-1.1-1-1.4s-1.1-0.3-1.6-0.1
				c-1,0.3-1.5,1.4-1.3,2.3s1,1.7,2.1,1.6c0.5,0,1.1-0.3,1.4-0.8C202.7,353.8,202.8,353.2,202.7,352.6z"/>
			<path class="st3" d="M203.3,369.4c0.3,1.1-0.4,2.5-1.7,2.9c-0.6,0.2-1.3,0.1-2-0.2c-0.6-0.3-1.1-1-1.2-1.7c-0.1-0.7,0-1.5,0.5-2
				c0.4-0.6,1.1-0.9,1.7-1C202,367.3,203.1,368.3,203.3,369.4z M203.3,369.4c-0.1-0.6-0.5-1.1-1-1.4s-1.1-0.3-1.6-0.1
				c-1,0.3-1.5,1.4-1.3,2.3s1,1.7,2.1,1.6c0.5,0,1.1-0.3,1.4-0.8C203.3,370.6,203.4,370,203.3,369.4z"/>
		</g>
	</g>
	<g>
		<rect x="148.2" y="404" transform="matrix(0.957 -0.29 0.29 0.957 -110.5085 69.5794)" class="st2" width="62.7" height="7.3"/>
		<rect x="148.2" y="404" transform="matrix(0.957 -0.29 0.29 0.957 -110.5085 69.5794)" class="st7" width="62.7" height="7.3"/>
		
			<rect x="174.2" y="402.3" transform="matrix(0.953 -0.3031 0.3031 0.953 -115.2265 73.0924)" class="st2" width="7.3" height="10.9"/>
		<g>
			<polygon class="st2" points="150.1,430.6 134.6,363.5 87.8,374.6 110.9,440 			"/>
			<g>
				<polygon class="st2" points="160.5,427.2 150.1,430.6 134.6,363.5 149.5,367.1 				"/>
				<polygon class="st5" points="160.5,427.2 150.1,430.6 134.6,363.5 149.5,367.1 				"/>
			</g>
		</g>
		<circle class="st2" cx="209.6" cy="398.6" r="8"/>
	</g>
	<g>
		
			<rect x="316.7" y="376.2" transform="matrix(0.292 -0.9564 0.9564 0.292 -162.9566 594.9604)" class="st2" width="7.3" height="62.7"/>
		
			<rect x="316.7" y="376.2" transform="matrix(0.292 -0.9564 0.9564 0.292 -162.9566 594.9604)" class="st7" width="7.3" height="62.7"/>
		
			<rect x="316.6" y="403.9" transform="matrix(0.3052 -0.9523 0.9523 0.3052 -164.3969 589.856)" class="st2" width="10.9" height="7.3"/>
		<g>
			<polygon class="st2" points="349.8,430.5 365.5,363.5 412.2,374.7 389,440 			"/>
			<g>
				<polygon class="st2" points="339.5,427.1 349.8,430.5 365.5,363.5 350.5,367 				"/>
				<polygon class="st5" points="339.5,427.1 349.8,430.5 365.5,363.5 350.5,367 				"/>
			</g>
		</g>
		<path class="st2" d="M282.5,398.4c0,4.4,3.5,8,7.9,8s8-3.5,8-7.9s-3.5-8-7.9-8C286,390.5,282.5,394,282.5,398.4z"/>
	</g>
	<g>
		<g>
			<path class="st2" d="M342.5,315.7c0.2-0.2,19.5-18.1,42.2-11.9c23.2,6.3,42.4,41.2,42.5,41.6l6.4-3.5
				c-0.8-1.6-20.8-38.1-47.1-45.1c-26.7-7.2-48.2,12.9-49.1,13.7L342.5,315.7z"/>
			<path class="st7" d="M342.5,315.7c0.2-0.2,19.5-18.1,42.2-11.9c23.2,6.3,42.4,41.2,42.5,41.6l6.4-3.5
				c-0.8-1.6-20.8-38.1-47.1-45.1c-26.7-7.2-48.2,12.9-49.1,13.7L342.5,315.7z"/>
		</g>
		<path class="st2" d="M418.7,380.4l13.9-7.3c-1.3-2.5-3-6.9-3.2-10.8c-0.3-5.1,1.7-6.9,3.9-8c4.9-2.6,7.8-1.6,9.8-0.4
			c2.8,1.6,5.6,5,8,9.5l13.9-7.3c-3.8-7.2-8.5-12.5-13.9-15.7s-14.1-5.8-25.1,0c-8.5,4.5-12.9,12.6-12.3,22.9
			C414.2,371.3,417.6,378.5,418.7,380.4z"/>
	</g>
	<g>
		<path class="st1" d="M345.5,291.2c3-2.1,6.1-4,9.2-6s6.2-3.8,9.4-5.7c3.2-1.8,6.3-3.7,9.5-5.4l4.8-2.6c1.6-0.8,3.2-1.7,4.9-2.5
			c-1.5,1.1-3,2-4.6,3.1l-4.6,2.9c-3.1,2-6.2,3.8-9.4,5.7c-3.2,1.8-6.3,3.7-9.5,5.4C352,287.8,348.7,289.6,345.5,291.2z"/>
		<path class="st1" d="M337.5,321.2c4.3,2.5,8.4,5.2,12.4,8.1s8,5.8,11.7,9.1c-4.3-2.5-8.4-5.2-12.4-8.1
			C345.2,327.4,341.2,324.4,337.5,321.2z"/>
		<path class="st1" d="M344.6,317.5c3.3,1,6.6,2.2,9.9,3.3c3.3,1.1,6.5,2.4,9.7,3.6c3.2,1.3,6.5,2.5,9.6,3.9l4.8,2.1
			c1.6,0.7,3.2,1.4,4.7,2.2c-1.7-0.5-3.3-1.1-5-1.6l-4.9-1.7c-3.3-1.1-6.5-2.4-9.7-3.6c-3.2-1.3-6.5-2.5-9.6-3.9
			C350.9,320.3,347.7,319,344.6,317.5z"/>
		<path class="st1" d="M354,294c3.2-0.8,6.4-1.5,9.6-2.2s6.4-1.3,9.7-1.9c3.2-0.6,6.5-1.1,9.7-1.6l4.9-0.7c1.6-0.2,3.3-0.4,4.9-0.5
			c-1.6,0.4-3.2,0.8-4.8,1.2l-4.8,1c-3.2,0.7-6.4,1.3-9.7,1.9c-3.2,0.6-6.5,1.1-9.7,1.6C360.6,293.2,357.3,293.7,354,294z"/>
	</g>
</g>
<g>
	<g>
		<path class="st1" d="M279.5,309.1c0.4-2,1.1-4,2-5.9s2-3.7,3.3-5.3c1.4-1.6,3-3,5-3.8c2-0.7,4.3-0.7,6.3,0.1
			c2,0.8,3.6,2.5,4.5,4.5c0.4,1,0.7,2,0.8,3.1c0.1,1.1,0.1,2.2-0.4,3.3c-0.2,0.5-0.6,1.1-1.1,1.4c-0.3,0.2-0.6,0.3-0.9,0.3
			s-0.6,0-1-0.1c-0.7-0.3-1-0.8-1.3-1.3s-0.5-1-0.6-1.5c-0.6-2.1-0.6-4.2-0.5-6.3c0.3-4.2,1.4-8.4,3.6-12c1.1-1.8,2.6-3.4,4.3-4.6
			c1.8-1.2,3.8-2,5.9-2.3c1-0.2,2.1-0.2,3.1-0.3c0.5-0.1,1.1,0.1,1.6,0.1c0.5,0.1,1.1,0.1,1.6,0.2c2.1,0.4,4,1.2,5.9,2.2
			c1.8,1,3.4,2.4,4.9,3.8c1.5,1.5,2.8,3.1,3.9,4.9c-2.4-3.4-5.4-6.3-9-8.3c-1.8-0.9-3.7-1.7-5.7-2c-0.5-0.1-1-0.1-1.5-0.2
			c-0.5,0-1-0.1-1.5-0.1c-1,0.1-2,0.1-3,0.3c-2,0.3-3.9,1.1-5.5,2.2c-1.7,1.1-3,2.7-4.1,4.4c-2.1,3.4-3.2,7.5-3.4,11.5
			c-0.1,2-0.1,4.1,0.4,6c0.2,0.9,0.7,1.9,1.3,2.2c0.1,0,0.1,0.1,0.2,0.1s0.2,0,0.3,0c0.2,0,0.4-0.1,0.5-0.2c0.3-0.2,0.6-0.6,0.8-1
			c0.4-0.8,0.4-1.9,0.3-2.8c-0.1-1-0.3-1.9-0.8-2.8c-0.8-1.8-2.2-3.4-4-4.1c-1.8-0.8-3.9-0.8-5.8-0.2c-1.9,0.7-3.5,2-4.9,3.5
			C282.5,301.3,280.6,305.1,279.5,309.1z"/>
	</g>
	<g>
		<path class="st1" d="M117.2,331.5c1-1.8,2.4-3.4,4-4.6c1.7-1.2,3.6-2.2,5.6-2.7c2-0.5,4.2-0.5,6.3,0.1c2,0.6,3.9,1.8,5.3,3.3
			c1.5,1.5,2.6,3.4,3.3,5.3c0.7,2,1.2,4.1,1,6.2c-0.1,1.1-0.3,2.2-1.2,3.1c-0.4,0.5-1.1,0.7-1.7,0.8c-0.6,0-1.2-0.1-1.7-0.4
			s-1-0.8-1.2-1.3c-0.3-0.5-0.4-1.1-0.4-1.7c0-1.1,0.2-2.2,0.5-3.2c0.7-2,1.8-3.9,3.1-5.5c1.3-1.7,2.8-3.1,4.5-4.4
			c3.4-2.5,7.7-3.8,11.9-3.3c2.1,0.3,4.1,0.9,6,1.9c1.8,1,3.4,2.4,4.7,4.1c1.3,1.6,2.3,3.5,3.1,5.4s1.4,3.9,1.6,5.9
			c-0.8-4-2.5-7.9-5.1-11c-1.3-1.6-2.9-2.9-4.6-3.8c-1.8-1-3.7-1.5-5.7-1.7c-4-0.4-8.1,0.8-11.3,3.2c-3.2,2.4-5.9,5.7-7.2,9.4
			c-0.3,0.9-0.5,1.9-0.5,2.8s0.3,1.8,1.1,2.2c0.4,0.2,0.8,0.3,1.3,0.3c0.4,0,0.8-0.2,1.1-0.5c0.6-0.6,0.8-1.6,0.9-2.6
			c0.2-2-0.2-4-0.9-5.8c-0.7-1.9-1.8-3.6-3.1-5.1c-1.4-1.5-3.1-2.6-5-3.2s-4-0.7-5.9-0.3C123,325.5,119.4,328,117.2,331.5z"/>
	</g>
	<g>
		<path class="st1" d="M169,121c-0.1-4.1-1-8.3-2.9-11.9c-1-1.8-2.2-3.4-3.9-4.5s-3.7-1.5-5.7-1.2c-1.9,0.3-3.7,1.5-4.9,3
			c-0.6,0.8-1.1,1.7-1.4,2.6c-0.3,0.9-0.5,1.9-0.4,2.8c0.1,0.4,0.2,0.9,0.5,1.1c0.1,0.1,0.3,0.2,0.5,0.3c0.1,0,0.2,0,0.3,0.1
			c0.1,0,0.2,0,0.2,0c0.7-0.1,1.3-1,1.8-1.9c0.9-1.7,1.5-3.7,1.9-5.7c0.7-4,0.7-8.2-0.6-12c-0.6-1.9-1.6-3.7-2.9-5.2
			c-1.3-1.5-3-2.7-4.8-3.5c-0.9-0.5-1.9-0.7-2.8-1c-0.5-0.2-1-0.2-1.5-0.3c-0.5-0.1-1-0.2-1.5-0.2c-2-0.2-4.1,0.1-6,0.6
			c-4,1-7.6,3.2-10.7,5.9c1.5-1.5,3.1-2.7,4.9-3.8c1.8-1.1,3.7-2,5.7-2.6c2-0.5,4.1-0.9,6.2-0.8c0.5,0,1,0.1,1.6,0.2
			c0.5,0.1,1.1,0.1,1.6,0.3c1,0.3,2,0.5,3,1c2,0.7,3.8,2,5.2,3.6s2.4,3.5,3.1,5.5c1.3,4,1.4,8.4,0.7,12.5c-0.4,2.1-1,4.1-2,6
			c-0.3,0.5-0.6,0.9-0.9,1.4c-0.4,0.4-0.8,0.8-1.6,1c-0.4,0-0.7,0-1-0.1s-0.6-0.3-0.8-0.5c-0.4-0.5-0.6-1.1-0.7-1.6
			c-0.2-1.1,0.1-2.2,0.4-3.3c0.4-1,0.9-2,1.6-2.8c1.3-1.7,3.3-3,5.4-3.3c2.1-0.3,4.4,0.2,6.1,1.4c1.8,1.2,3,3,4,4.8
			c0.9,1.9,1.5,3.9,1.9,5.9C168.8,116.9,169,118.9,169,121z"/>
	</g>
	<g>
		<path class="st1" d="M363.8,158.2c-4-0.9-8.3-1-12.2,0.1c-2,0.5-3.9,1.4-5.3,2.7c-1.4,1.4-2.4,3.3-2.5,5.2c-0.2,2,0.6,3.9,1.8,5.5
			c0.6,0.8,1.4,1.4,2.2,2c0.8,0.5,1.7,0.9,2.7,1c0.5,0,0.9,0,1.2-0.2c0.2-0.1,0.3-0.2,0.4-0.4c0.1-0.1,0.1-0.2,0.1-0.3
			s0-0.2,0.1-0.2c0-0.7-0.7-1.6-1.4-2.2c-1.5-1.3-3.3-2.3-5.1-3.1c-3.7-1.6-7.8-2.6-11.8-2.3c-2,0.2-4,0.6-5.8,1.6
			c-1.8,0.9-3.3,2.2-4.5,3.9c-0.7,0.8-1.1,1.7-1.7,2.5c-0.3,0.4-0.4,0.9-0.6,1.4s-0.4,0.9-0.5,1.4c-0.6,1.9-0.8,4-0.8,6
			c0.1,4.1,1.3,8.1,3.2,11.8c-1.1-1.8-1.9-3.7-2.5-5.7s-1.1-4-1.2-6.1s0.1-4.2,0.7-6.2c0.1-0.5,0.4-1,0.5-1.5c0.2-0.5,0.3-1,0.6-1.4
			c0.5-0.9,1-1.9,1.7-2.7c1.2-1.7,2.8-3.2,4.7-4.2c1.9-1,4-1.5,6.1-1.7c4.2-0.4,8.5,0.6,12.3,2.2c1.9,0.9,3.8,1.9,5.4,3.4
			c0.4,0.4,0.8,0.8,1.1,1.2c0.3,0.5,0.6,1,0.6,1.7c-0.1,0.4-0.2,0.7-0.4,0.9c-0.2,0.3-0.4,0.5-0.7,0.6c-0.6,0.3-1.2,0.4-1.8,0.3
			c-1.1-0.1-2.2-0.6-3.1-1.2c-0.9-0.6-1.7-1.3-2.4-2.2c-1.4-1.7-2.1-3.9-1.9-6.1c0.2-2.2,1.3-4.2,2.8-5.6c1.6-1.4,3.6-2.3,5.6-2.7
			c2-0.5,4.1-0.6,6.2-0.5C359.7,157.3,361.8,157.6,363.8,158.2z"/>
	</g>
	<g>
		<path class="st1" d="M305.9,135.5c-0.7-2.4-0.8-4.9-0.4-7.4c0.4-2.4,1.2-4.9,2.6-7c1.3-2.1,3.2-3.9,5.4-5.1
			c2.2-1.2,4.8-1.7,7.3-1.6s5,0.7,7.3,1.8c2.3,1.1,4.4,2.5,6.1,4.4c0.8,1,1.6,2.1,1.6,3.6c0,0.7-0.3,1.5-0.8,2s-1.1,0.9-1.8,1.1
			c-0.7,0.2-1.5,0.2-2.1-0.1c-0.7-0.2-1.2-0.7-1.7-1.1c-1-0.9-1.6-2-2.2-3.2c-1.1-2.3-1.7-4.8-2-7.2c-0.3-2.5-0.2-5,0.2-7.5
			c0.8-4.9,3.4-9.7,7.4-12.7c2-1.5,4.3-2.7,6.7-3.3c2.4-0.7,5-0.8,7.4-0.5c2.5,0.3,4.9,1,7.1,2c2.3,1,4.4,2.2,6.4,3.7
			c-4.1-2.7-8.7-4.7-13.6-5.2c-2.4-0.2-4.9-0.1-7.2,0.6c-2.3,0.6-4.5,1.8-6.4,3.3s-3.5,3.4-4.6,5.5c-1.2,2.1-1.9,4.4-2.4,6.8
			c-0.8,4.7-0.3,9.8,1.7,14.2c0.5,1.1,1.2,2.1,2,2.9s1.9,1.3,2.9,1c0.5-0.1,1-0.5,1.4-0.8c0.4-0.4,0.5-0.8,0.5-1.4
			c0-1.1-0.6-2.1-1.4-3c-1.5-1.8-3.6-3.2-5.7-4.2c-2.2-1-4.6-1.6-7-1.7s-4.8,0.4-7,1.4c-2.2,1.1-4,2.8-5.3,4.8
			C305.8,125.5,304.8,130.7,305.9,135.5z"/>
	</g>
	<g>
		<g>
			<g>
				<g>
					<path class="st9" d="M113.9,331.7c-2.2-0.7-4.6,0.5-5.3,2.8c-0.7,2.2,0.5,4.6,2.8,5.3c2.2,0.7,4.6-0.5,5.3-2.8
						C117.4,334.8,116.1,332.4,113.9,331.7z M116.2,336.9c-0.6,2-2.7,3.1-4.7,2.4c-2-0.6-3.1-2.7-2.4-4.7c0.6-2,2.7-3.1,4.7-2.4
						C115.7,332.8,116.8,334.9,116.2,336.9z M113.9,331.7c-2.2-0.7-4.6,0.5-5.3,2.8c-0.7,2.2,0.5,4.6,2.8,5.3
						c2.2,0.7,4.6-0.5,5.3-2.8C117.4,334.8,116.1,332.4,113.9,331.7z M116.2,336.9c-0.6,2-2.7,3.1-4.7,2.4c-2-0.6-3.1-2.7-2.4-4.7
						c0.6-2,2.7-3.1,4.7-2.4C115.7,332.8,116.8,334.9,116.2,336.9z M113.9,331.7c-2.2-0.7-4.6,0.5-5.3,2.8c-0.7,2.2,0.5,4.6,2.8,5.3
						c2.2,0.7,4.6-0.5,5.3-2.8C117.4,334.8,116.1,332.4,113.9,331.7z M116.2,336.9c-0.6,2-2.7,3.1-4.7,2.4c-2-0.6-3.1-2.7-2.4-4.7
						c0.6-2,2.7-3.1,4.7-2.4C115.7,332.8,116.8,334.9,116.2,336.9z M115.3,327.2c-4.7-1.5-9.8,1.1-11.2,5.9
						c-1.5,4.7,1.1,9.8,5.9,11.2c4.7,1.5,9.8-1.1,11.2-5.9C122.6,333.7,120,328.7,115.3,327.2z M117.3,337.2c-0.8,2.6-3.6,4-6.2,3.2
						s-4-3.6-3.2-6.2s3.6-4,6.2-3.2C116.7,331.9,118.1,334.7,117.3,337.2z M116.6,337.1c0.7-2.2-0.5-4.6-2.8-5.3
						c-2.2-0.7-4.6,0.5-5.3,2.8c-0.7,2.2,0.5,4.6,2.8,5.3C113.6,340.5,115.9,339.3,116.6,337.1z M116.2,336.9
						c-0.6,2-2.7,3.1-4.7,2.4c-2-0.6-3.1-2.7-2.4-4.7c0.6-2,2.7-3.1,4.7-2.4C115.7,332.8,116.8,334.9,116.2,336.9z M113.9,331.7
						c-2.2-0.7-4.6,0.5-5.3,2.8c-0.7,2.2,0.5,4.6,2.8,5.3c2.2,0.7,4.6-0.5,5.3-2.8C117.4,334.8,116.1,332.4,113.9,331.7z
						 M116.2,336.9c-0.6,2-2.7,3.1-4.7,2.4c-2-0.6-3.1-2.7-2.4-4.7c0.6-2,2.7-3.1,4.7-2.4C115.7,332.8,116.8,334.9,116.2,336.9z
						 M113.9,331.7c-2.2-0.7-4.6,0.5-5.3,2.8c-0.7,2.2,0.5,4.6,2.8,5.3c2.2,0.7,4.6-0.5,5.3-2.8
						C117.4,334.8,116.1,332.4,113.9,331.7z M116.2,336.9c-0.6,2-2.7,3.1-4.7,2.4c-2-0.6-3.1-2.7-2.4-4.7c0.6-2,2.7-3.1,4.7-2.4
						C115.7,332.8,116.8,334.9,116.2,336.9z"/>
					<g>
						<polygon class="st9" points="111.7,344.5 108.4,343.4 107.8,345.8 110.7,346.8 						"/>
						<polygon class="st9" points="105.8,341.4 104.2,338.3 102.1,339.6 103.5,342.4 						"/>
						<polygon class="st9" points="103.8,335.1 104.8,331.8 102.4,331.2 101.5,334.1 						"/>
						<polygon class="st9" points="106.8,329.1 109.9,327.6 108.6,325.5 105.9,326.9 						"/>
						<polygon class="st9" points="113.2,327.1 116.5,328.2 117,325.8 114.1,324.9 						"/>
						<polygon class="st9" points="119.1,330.2 120.7,333.3 122.8,332 121.3,329.3 						"/>
						<polygon class="st9" points="121.1,336.6 120.1,339.9 122.4,340.4 123.4,337.5 						"/>
						<polygon class="st9" points="118,342.5 115,344.1 116.3,346.2 119,344.7 						"/>
					</g>
				</g>
			</g>
		</g>
	</g>
	<g>
		<g>
			<path class="st1" d="M349.6,306.7c4.5-6.1,3.2-14.7-2.8-19.2c-6.1-4.5-14.7-3.2-19.2,2.8c-4.5,6.1-3.2,14.7,2.8,19.2
				C336.5,314,345.1,312.7,349.6,306.7z M343.7,302.3c-2.1,2.8-6.1,3.4-8.9,1.3s-3.4-6.1-1.3-9c2.1-2.8,6.1-3.4,8.9-1.3
				C345.2,295.5,345.8,299.5,343.7,302.3z"/>
			<polygon class="st1" points="332.9,310.6 328.6,307.5 326.7,310.6 330.4,313.4 			"/>
			<polygon class="st1" points="325.9,303.2 325.1,298 321.5,298.8 322.1,303.5 			"/>
			<polygon class="st1" points="326.2,293 329.3,288.8 326.1,286.8 323.3,290.6 			"/>
			<polygon class="st1" points="333.6,286 338.8,285.3 337.9,281.6 333.3,282.3 			"/>
			<polygon class="st1" points="343.7,286.3 348,289.5 350,286.3 346.2,283.5 			"/>
			<polygon class="st1" points="350.7,293.7 351.5,298.9 355.2,298.1 354.5,293.5 			"/>
			<polygon class="st1" points="350.5,303.9 347.3,308.1 350.5,310.1 353.3,306.4 			"/>
			<polygon class="st1" points="343.1,310.9 337.8,311.7 338.7,315.3 343.3,314.6 			"/>
		</g>
		<path class="st1" d="M333.7,299.1l2.9,3.7l4.6-0.7l1.7-4.4L340,294l-4.6,0.7L333.7,299.1z M339.2,297.3c0.7,0.5,0.8,1.4,0.3,2.1
			s-1.4,0.8-2.1,0.3s-0.8-1.4-0.3-2.1C337.6,296.9,338.5,296.8,339.2,297.3z"/>
	</g>
	<g>
		<g>
			<g>
				<g>
					<path class="st1" d="M365.9,94.4c-2-0.6-4,0.5-4.7,2.4c-0.6,2,0.5,4.1,2.4,4.7c2,0.6,4-0.5,4.7-2.4
						C369,97.1,367.9,95,365.9,94.4z M367.9,98.9c-0.5,1.7-2.4,2.7-4.1,2.1c-1.7-0.5-2.7-2.4-2.1-4.1c0.5-1.7,2.4-2.7,4.1-2.1
						S368.5,97.2,367.9,98.9z M365.9,94.4c-2-0.6-4,0.5-4.7,2.4c-0.6,2,0.5,4.1,2.4,4.7c2,0.6,4-0.5,4.7-2.4
						C369,97.1,367.9,95,365.9,94.4z M367.9,98.9c-0.5,1.7-2.4,2.7-4.1,2.1c-1.7-0.5-2.7-2.4-2.1-4.1c0.5-1.7,2.4-2.7,4.1-2.1
						S368.5,97.2,367.9,98.9z M365.9,94.4c-2-0.6-4,0.5-4.7,2.4c-0.6,2,0.5,4.1,2.4,4.7c2,0.6,4-0.5,4.7-2.4
						C369,97.1,367.9,95,365.9,94.4z M367.9,98.9c-0.5,1.7-2.4,2.7-4.1,2.1c-1.7-0.5-2.7-2.4-2.1-4.1c0.5-1.7,2.4-2.7,4.1-2.1
						S368.5,97.2,367.9,98.9z M367.2,90.5c-4.1-1.3-8.5,1-9.8,5.1s1,8.5,5.1,9.8s8.5-1,9.8-5.1C373.6,96.2,371.3,91.8,367.2,90.5z
						 M368.9,99.2c-0.7,2.3-3.1,3.5-5.4,2.8s-3.5-3.1-2.8-5.4s3.1-3.5,5.4-2.8C368.4,94.6,369.6,97,368.9,99.2z M368.4,99.1
						c0.6-2-0.5-4-2.4-4.7c-2-0.6-4,0.5-4.7,2.4c-0.6,2,0.5,4.1,2.4,4.7C365.7,102.1,367.8,101,368.4,99.1z M367.9,98.9
						c-0.5,1.7-2.4,2.7-4.1,2.1c-1.7-0.5-2.7-2.4-2.1-4.1c0.5-1.7,2.4-2.7,4.1-2.1S368.5,97.2,367.9,98.9z M365.9,94.4
						c-2-0.6-4,0.5-4.7,2.4c-0.6,2,0.5,4.1,2.4,4.7c2,0.6,4-0.5,4.7-2.4C369,97.1,367.9,95,365.9,94.4z M367.9,98.9
						c-0.5,1.7-2.4,2.7-4.1,2.1c-1.7-0.5-2.7-2.4-2.1-4.1c0.5-1.7,2.4-2.7,4.1-2.1S368.5,97.2,367.9,98.9z M365.9,94.4
						c-2-0.6-4,0.5-4.7,2.4c-0.6,2,0.5,4.1,2.4,4.7c2,0.6,4-0.5,4.7-2.4C369,97.1,367.9,95,365.9,94.4z M367.9,98.9
						c-0.5,1.7-2.4,2.7-4.1,2.1c-1.7-0.5-2.7-2.4-2.1-4.1c0.5-1.7,2.4-2.7,4.1-2.1S368.5,97.2,367.9,98.9z"/>
					<g>
						<polygon class="st1" points="364,105.6 361.1,104.7 360.6,106.7 363.2,107.6 						"/>
						<polygon class="st1" points="358.8,102.9 357.4,100.2 355.6,101.3 356.9,103.7 						"/>
						<polygon class="st1" points="357.1,97.3 358,94.4 355.9,94 355.1,96.5 						"/>
						<polygon class="st1" points="359.8,92.1 362.5,90.8 361.3,88.9 358.9,90.2 						"/>
						<polygon class="st1" points="365.3,90.4 368.2,91.3 368.7,89.2 366.1,88.4 						"/>
						<polygon class="st1" points="370.5,93.1 371.9,95.8 373.7,94.6 372.5,92.3 						"/>
						<polygon class="st1" points="372.3,98.6 371.4,101.5 373.4,102 374.2,99.4 						"/>
						<polygon class="st1" points="369.6,103.8 366.9,105.2 368,107 370.4,105.8 						"/>
					</g>
				</g>
			</g>
		</g>
	</g>
	<g>
		<g>
			<g>
				<g>
					<path class="st1" d="M323.7,195.3c-2-0.6-4.1,0.5-4.7,2.4c-0.6,2,0.5,4.1,2.4,4.7c2,0.6,4-0.5,4.7-2.4
						C326.8,198,325.7,195.9,323.7,195.3z M325.7,199.8c-0.5,1.7-2.4,2.7-4.1,2.1s-2.7-2.4-2.1-4.1c0.5-1.7,2.4-2.7,4.1-2.1
						C325.3,196.2,326.3,198.1,325.7,199.8z M323.7,195.3c-2-0.6-4.1,0.5-4.7,2.4c-0.6,2,0.5,4.1,2.4,4.7c2,0.6,4-0.5,4.7-2.4
						C326.8,198,325.7,195.9,323.7,195.3z M325.7,199.8c-0.5,1.7-2.4,2.7-4.1,2.1s-2.7-2.4-2.1-4.1c0.5-1.7,2.4-2.7,4.1-2.1
						C325.3,196.2,326.3,198.1,325.7,199.8z M323.7,195.3c-2-0.6-4.1,0.5-4.7,2.4c-0.6,2,0.5,4.1,2.4,4.7c2,0.6,4-0.5,4.7-2.4
						C326.8,198,325.7,195.9,323.7,195.3z M325.7,199.8c-0.5,1.7-2.4,2.7-4.1,2.1s-2.7-2.4-2.1-4.1c0.5-1.7,2.4-2.7,4.1-2.1
						C325.3,196.2,326.3,198.1,325.7,199.8z M325,191.3c-4.1-1.3-8.5,1-9.8,5.1s1,8.5,5.1,9.8s8.5-1,9.8-5.1S329.1,192.6,325,191.3z
						 M326.7,200.1c-0.7,2.3-3.1,3.5-5.4,2.8s-3.5-3.1-2.8-5.4c0.7-2.3,3.1-3.5,5.4-2.8C326.2,195.4,327.4,197.8,326.7,200.1z
						 M326.2,199.9c0.6-2-0.5-4-2.4-4.7c-2-0.6-4.1,0.5-4.7,2.4c-0.6,2,0.5,4.1,2.4,4.7C323.5,203,325.5,201.9,326.2,199.9z
						 M325.7,199.8c-0.5,1.7-2.4,2.7-4.1,2.1s-2.7-2.4-2.1-4.1c0.5-1.7,2.4-2.7,4.1-2.1C325.3,196.2,326.3,198.1,325.7,199.8z
						 M323.7,195.3c-2-0.6-4.1,0.5-4.7,2.4c-0.6,2,0.5,4.1,2.4,4.7c2,0.6,4-0.5,4.7-2.4C326.8,198,325.7,195.9,323.7,195.3z
						 M325.7,199.8c-0.5,1.7-2.4,2.7-4.1,2.1s-2.7-2.4-2.1-4.1c0.5-1.7,2.4-2.7,4.1-2.1C325.3,196.2,326.3,198.1,325.7,199.8z
						 M323.7,195.3c-2-0.6-4.1,0.5-4.7,2.4c-0.6,2,0.5,4.1,2.4,4.7c2,0.6,4-0.5,4.7-2.4C326.8,198,325.7,195.9,323.7,195.3z
						 M325.7,199.8c-0.5,1.7-2.4,2.7-4.1,2.1s-2.7-2.4-2.1-4.1c0.5-1.7,2.4-2.7,4.1-2.1C325.3,196.2,326.3,198.1,325.7,199.8z"/>
					<g>
						<polygon class="st1" points="321.8,206.4 318.9,205.5 318.4,207.6 321,208.4 						"/>
						<polygon class="st1" points="316.6,203.7 315.2,201.1 313.4,202.2 314.6,204.6 						"/>
						<polygon class="st1" points="314.9,198.2 315.8,195.3 313.7,194.8 312.9,197.4 						"/>
						<polygon class="st1" points="317.6,193 320.2,191.6 319.1,189.8 316.7,191 						"/>
						<polygon class="st1" points="323.1,191.3 326,192.2 326.5,190.1 323.9,189.3 						"/>
						<polygon class="st1" points="328.3,194 329.7,196.6 331.5,195.5 330.3,193.1 						"/>
						<polygon class="st1" points="330,199.5 329.1,202.4 331.2,202.9 332,200.3 						"/>
						<polygon class="st1" points="327.3,204.7 324.7,206.1 325.8,207.9 328.2,206.7 						"/>
					</g>
				</g>
			</g>
		</g>
	</g>
	<g>
		<g>
			<path class="st1" d="M131,97.8c1.5-6.3-2.3-12.7-8.7-14.3c-6.3-1.5-12.7,2.3-14.3,8.7c-1.5,6.3,2.3,12.7,8.7,14.3
				C123.1,108,129.5,104.1,131,97.8z M124.9,96.3c-0.7,3-3.7,4.8-6.7,4c-3-0.7-4.8-3.7-4-6.7c0.7-3,3.7-4.8,6.7-4
				C123.8,90.4,125.6,93.3,124.9,96.3z"/>
			<polygon class="st1" points="119.1,106.5 114.7,105.4 114.2,108.6 118.1,109.6 			"/>
			<polygon class="st1" points="111.1,103 108.7,99.1 106.1,101 108.2,104.4 			"/>
			<polygon class="st1" points="107.9,94.8 109,90.4 105.8,89.9 104.8,93.8 			"/>
			<polygon class="st1" points="111.4,86.8 115.3,84.4 113.4,81.8 110,83.9 			"/>
			<polygon class="st1" points="119.6,83.6 124,84.7 124.5,81.5 120.6,80.6 			"/>
			<polygon class="st1" points="127.6,87.1 130,91 132.6,89.1 130.5,85.7 			"/>
			<polygon class="st1" points="130.8,95.3 129.7,99.7 132.9,100.2 133.8,96.3 			"/>
			<polygon class="st1" points="127.3,103.3 123.4,105.7 125.3,108.3 128.7,106.2 			"/>
		</g>
		<path class="st1" d="M115.9,97.2l3.5,1.9l3.4-2.1l-0.1-4l-3.5-1.9l-3.4,2.1L115.9,97.2z M119.6,93.8c0.7,0.2,1.1,0.9,0.9,1.5
			c-0.2,0.7-0.9,1.1-1.5,0.9c-0.7-0.2-1.1-0.9-0.9-1.5C118.3,94.1,119,93.7,119.6,93.8z"/>
	</g>
</g>
<g>
	<g>
		<path class="st6" d="M381.4,164.3c-3.4-5.2-5.4-11.1-5.4-17.4c0-22,24.2-39.9,54-39.9s54,17.9,54,39.9s-24.2,39.9-54,39.9
			c-14.5,0-27.6-4.2-37.2-11l-18.6,4.7L381.4,164.3z"/>
		<path class="st1" d="M381.4,164.3c-3.3-4.8-5.5-10.5-5.7-16.4c-0.3-5.9,1.2-11.9,4.2-17.1c2.9-5.2,7.1-9.6,11.9-13.1
			s10.2-6.2,15.8-8.1c11.2-3.9,23.4-4.7,35.2-2.8c5.9,1,11.6,2.7,17.1,5.3c5.4,2.6,10.5,5.9,14.8,10.2c4.3,4.2,7.7,9.5,9.5,15.3
			s1.9,12.2,0.2,18.1c-1.7,5.9-5.1,11.2-9.3,15.5c-4.2,4.3-9.3,7.7-14.7,10.3c-5.4,2.6-11.1,4.3-17,5.4c-2.9,0.5-5.9,0.8-8.9,1
			s-5.9,0.1-8.9-0.1c-5.9-0.4-11.8-1.5-17.4-3.4s-11-4.5-15.8-8l0.6,0.1l-18.7,4.4l-0.7,0.2l0.3-0.7L381.4,164.3z M381.4,164.3
			l-6.9,16.3l-0.4-0.5l18.5-5l0.3-0.1l0.3,0.2c4.8,3.2,10,5.7,15.5,7.4s11.2,2.7,17,3c2.9,0.2,5.8,0.1,8.6-0.1
			c2.9-0.2,5.7-0.5,8.5-1.1c5.6-1.1,11.1-2.8,16.3-5.4c5.1-2.5,9.8-5.8,13.8-9.9c3.9-4,7-8.9,8.5-14.3c1.6-5.3,1.5-11.1-0.2-16.4
			c-1.6-5.3-4.8-10.2-8.8-14.1c-4-4-8.8-7.2-13.9-9.7s-10.6-4.2-16.3-5.2c-5.6-1-11.4-1.3-17.1-1s-11.4,1.3-16.9,3.1
			c-5.5,1.7-10.7,4.2-15.4,7.6c-4.7,3.3-8.8,7.5-11.8,12.4c-3,4.9-4.7,10.6-4.6,16.4C376.5,153.6,378.3,159.3,381.4,164.3z"/>
	</g>
	<g>
		<path class="st1" d="M402.2,153.4v3h-12.1V139H402v3h-8.5v4.2h7.3v2.7h-7.3v4.5H402.2z"/>
		<path class="st1" d="M404.9,156.4V139h7.7c0.8,0,1.5,0.2,2.2,0.5s1.3,0.8,1.8,1.3s0.9,1.2,1.2,1.9c0.3,0.7,0.4,1.4,0.4,2.1
			c0,1.1-0.3,2.2-0.8,3.1c-0.6,0.9-1.3,1.6-2.3,2l4,6.5h-3.8l-3.6-5.8h-3.3v5.8L404.9,156.4L404.9,156.4z M408.3,147.6h4.2
			c0.3,0,0.6-0.1,0.9-0.2c0.3-0.1,0.5-0.3,0.7-0.6s0.4-0.6,0.5-0.9c0.1-0.3,0.2-0.7,0.2-1.1c0-0.4-0.1-0.8-0.2-1.1s-0.3-0.6-0.5-0.9
			c-0.2-0.3-0.5-0.4-0.8-0.6c-0.3-0.1-0.6-0.2-0.9-0.2h-4.1L408.3,147.6L408.3,147.6z"/>
		<path class="st1" d="M421.2,156.4V139h7.7c0.8,0,1.5,0.2,2.2,0.5s1.3,0.8,1.8,1.3s0.9,1.2,1.2,1.9c0.3,0.7,0.4,1.4,0.4,2.1
			c0,1.1-0.3,2.2-0.8,3.1c-0.6,0.9-1.3,1.6-2.3,2l4,6.5h-3.8l-3.6-5.8h-3.3v5.8L421.2,156.4L421.2,156.4z M424.6,147.6h4.2
			c0.3,0,0.6-0.1,0.9-0.2c0.3-0.1,0.5-0.3,0.7-0.6s0.4-0.6,0.5-0.9c0.1-0.3,0.2-0.7,0.2-1.1c0-0.4-0.1-0.8-0.2-1.1s-0.3-0.6-0.5-0.9
			c-0.2-0.3-0.5-0.4-0.8-0.6c-0.3-0.1-0.6-0.2-0.9-0.2h-4.1L424.6,147.6L424.6,147.6z"/>
		<path class="st1" d="M444.9,156.5c-1.3,0-2.4-0.2-3.5-0.7c-1-0.5-1.9-1.2-2.7-2c-0.7-0.8-1.3-1.8-1.7-2.8
			c-0.4-1.1-0.6-2.1-0.6-3.3s0.2-2.3,0.6-3.3c0.4-1.1,1-2,1.8-2.8s1.7-1.5,2.7-1.9c1-0.5,2.2-0.7,3.4-0.7c1.3,0,2.4,0.3,3.4,0.8
			s1.9,1.2,2.7,2c0.7,0.8,1.3,1.8,1.7,2.8c0.4,1.1,0.6,2.1,0.6,3.2c0,1.2-0.2,2.3-0.6,3.3c-0.4,1.1-1,2-1.8,2.8s-1.7,1.5-2.7,1.9
			C447.3,156.3,446.1,156.5,444.9,156.5z M439.9,147.7c0,0.8,0.1,1.5,0.3,2.2c0.2,0.7,0.6,1.3,1,1.9c0.4,0.5,1,1,1.6,1.3
			s1.3,0.5,2.1,0.5c0.8,0,1.5-0.2,2.2-0.5c0.6-0.3,1.2-0.8,1.6-1.3c0.4-0.6,0.8-1.2,1-1.9s0.3-1.4,0.3-2.1c0-0.8-0.1-1.5-0.4-2.2
			c-0.2-0.7-0.6-1.3-1-1.9c-0.4-0.5-1-1-1.6-1.3s-1.3-0.5-2.1-0.5c-0.8,0-1.5,0.2-2.2,0.5c-0.6,0.3-1.2,0.8-1.6,1.3s-0.7,1.2-1,1.9
			C440,146.3,439.9,147,439.9,147.7z"/>
		<path class="st1" d="M456,156.4V139h7.7c0.8,0,1.5,0.2,2.2,0.5s1.3,0.8,1.8,1.3s0.9,1.2,1.2,1.9c0.3,0.7,0.4,1.4,0.4,2.1
			c0,1.1-0.3,2.2-0.8,3.1c-0.6,0.9-1.3,1.6-2.3,2l4,6.5h-3.8l-3.6-5.8h-3.3v5.8L456,156.4L456,156.4z M459.4,147.6h4.2
			c0.3,0,0.6-0.1,0.9-0.2c0.3-0.1,0.5-0.3,0.7-0.6s0.4-0.6,0.5-0.9c0.1-0.3,0.2-0.7,0.2-1.1c0-0.4-0.1-0.8-0.2-1.1s-0.3-0.6-0.5-0.9
			c-0.2-0.3-0.5-0.4-0.8-0.6c-0.3-0.1-0.6-0.2-0.9-0.2h-4.1L459.4,147.6L459.4,147.6z"/>
	</g>
</g>
<g>
	<path class="st1" d="M224.3,69.2h-12.8l-2.4,7.3h-7.8L214.4,41h6.8l13.3,35.5h-7.8L224.3,69.2z M213.4,63.2h8.9l-4.5-13.3
		L213.4,63.2z"/>
	<path class="st1" d="M244.8,76.5h-7.1V39h7.1V76.5z"/>
	<path class="st1" d="M262.8,77c-3.9,0-7-1.2-9.5-3.6c-2.4-2.4-3.7-5.5-3.7-9.5v-0.7c0-2.7,0.5-5,1.5-7.1s2.5-3.7,4.4-4.8
		c1.9-1.1,4-1.7,6.4-1.7c3.6,0,6.5,1.1,8.5,3.4c2.1,2.3,3.1,5.5,3.1,9.7v2.9h-16.8c0.2,1.7,0.9,3.1,2.1,4.2c1.1,1,2.6,1.6,4.4,1.6
		c2.7,0,4.8-1,6.4-3l3.5,3.9c-1.1,1.5-2.5,2.7-4.3,3.5C267,76.6,265,77,262.8,77z M262,55.3c-1.4,0-2.5,0.5-3.4,1.4
		s-1.4,2.3-1.7,4.1h9.8v-0.6c0-1.6-0.5-2.8-1.3-3.6C264.7,55.7,263.5,55.3,262,55.3z"/>
	<path class="st1" d="M292.5,56.7c-1-0.1-1.8-0.2-2.5-0.2c-2.7,0-4.4,0.9-5.2,2.7v17.3h-7.1V50.1h6.7l0.2,3.1
		c1.4-2.4,3.4-3.6,5.9-3.6c0.8,0,1.5,0.1,2.2,0.3L292.5,56.7z"/>
	<path class="st1" d="M305.6,43.6v6.5h4.5v5.2h-4.5v13.2c0,1,0.2,1.7,0.6,2.1s1.1,0.6,2.1,0.6c0.8,0,1.5-0.1,2.1-0.2v5.3
		c-1.4,0.4-2.8,0.6-4.3,0.6c-4.9,0-7.5-2.5-7.6-7.5V55.3h-3.9v-5.2h3.9v-6.5H305.6z"/>
	<path class="st1" d="M329.3,76.5c-0.3-0.6-0.6-1.4-0.7-2.4c-1.7,1.9-3.9,2.9-6.7,2.9c-2.6,0-4.7-0.7-6.4-2.2
		c-1.7-1.5-2.6-3.4-2.6-5.7c0-2.8,1-4.9,3.1-6.4s5.1-2.3,9-2.3h3.2v-1.5c0-1.2-0.3-2.2-0.9-2.9s-1.6-1.1-3-1.1
		c-1.2,0-2.1,0.3-2.8,0.9c-0.7,0.6-1,1.4-1,2.3h-7.1c0-1.5,0.5-2.9,1.4-4.2s2.3-2.3,4-3.1c1.7-0.7,3.7-1.1,5.8-1.1
		c3.3,0,5.8,0.8,7.8,2.5c1.9,1.6,2.9,3.9,2.9,6.9v11.5c0,2.5,0.4,4.4,1,5.7v0.4h-7V76.5z M323.5,71.6c1,0,2-0.2,2.9-0.7
		s1.5-1.1,2-1.9v-4.5h-2.6c-3.5,0-5.4,1.2-5.6,3.7v0.4c0,0.9,0.3,1.6,0.9,2.2C321.6,71.3,322.4,71.6,323.5,71.6z"/>
	<path class="st1" d="M345.1,69.4c1.2,0,2.1,0.4,2.9,1c0.7,0.7,1.1,1.6,1.1,2.7s-0.4,2-1.1,2.7s-1.7,1-2.9,1c-1.2,0-2.1-0.4-2.8-1
		c-0.7-0.7-1.1-1.6-1.1-2.7s0.4-2,1.1-2.7C343,69.8,343.9,69.4,345.1,69.4z M348,65.6h-5.9L341.3,41h7.5L348,65.6z"/>
</g>
</svg>
